# xmcd CD database file
#
# Track frame offsets:
#	150
#	27802
#	46117
#	68437
#	90836
#	107493
#	133570
#	162611
#	187675
#
# Disc length: 2878 seconds
#
# Revision: 0
# Processed by: cddbd v1.5PL3 Copyright (c) Steve Scherf et al.
# Submitted via: Feurio! 1.66 - http://www.feurio.com
#
DISCID=5d0b3c09
DTITLE=Hasan Dursun - Aglayan Nagmeler
DYEAR=2003
DGENRE=ilahiler
TTITLE0=Muhammed'e Gidemedim
TTITLE1=Kur'an Ruha Sifadir
TTITLE2=Muhammed'in Yarenleri
TTITLE3=Mevla'ya Gider
TTITLE4=Resulü
TTITLE5=Derman Isterim
TTITLE6=Bismillah Ciktik Yola
TTITLE7=Sefaat Ya Resulallah
TTITLE8=Alin Götürün
EXTD=Sehr Gut
EXTT0=Sehr Gut
EXTT1=Sehr Gut
EXTT2=Sehr Gut
EXTT3=Sehr Gut
EXTT4=Sehr Gut
EXTT5=Sehr Gut
EXTT6=Sehr Gut
EXTT7=Sehr Gut
EXTT8=Sehr Gut
PLAYORDER=
